<svg width="128" height="128" viewBox="0 0 128 128" fill="none" xmlns="http://www.w3.org/2000/svg">
    <path
        d="M0 16C0 7.16344 7.16344 0 16 0H112C120.837 0 128 7.16344 128 16V112C128 120.837 120.837 128 112 128H16C7.16344 128 0 120.837 0 112V16Z"
        fill="url(#paint0_linear_2102_3372)"/>
    <path
        d="M39.12 97C38.48 97 37.904 96.776 37.392 96.328C36.944 95.816 36.72 95.24 36.72 94.6V32.2C36.72 31.496 36.944 30.92 37.392 30.472C37.904 30.024 38.48 29.8 39.12 29.8H65.232C73.616 29.8 80.144 31.72 84.816 35.56C89.552 39.336 91.92 44.712 91.92 51.688C91.92 56.168 90.864 59.976 88.752 63.112C86.64 66.248 83.728 68.648 80.016 70.312L93.168 93.928C93.36 94.312 93.456 94.664 93.456 94.984C93.456 95.496 93.232 95.976 92.784 96.424C92.4 96.808 91.952 97 91.44 97H78.672C76.816 97 75.504 96.136 74.736 94.408L63.792 73.288H54V94.6C54 95.304 53.744 95.88 53.232 96.328C52.784 96.776 52.208 97 51.504 97H39.12ZM65.04 59.656C67.984 59.656 70.224 58.952 71.76 57.544C73.296 56.072 74.064 54.056 74.064 51.496C74.064 48.936 73.296 46.92 71.76 45.448C70.288 43.912 68.048 43.144 65.04 43.144H54V59.656H65.04Z"
        fill="white"/>
    <defs>
        <linearGradient id="paint0_linear_2102_3372" x1="68.5177" y1="-60.3113" x2="-52.1049" y2="58.6533"
                        gradientUnits="userSpaceOnUse">
            <stop stop-color="#FFCBA0"/>
            <stop offset="0.51418" stop-color="#DD5789"/>
            <stop offset="1" stop-color="#9B5BE6"/>
        </linearGradient>
    </defs>
</svg>